<?xml version="1.0" encoding="UTF-8"?>
<svg width="36px" height="36px" viewBox="0 0 36 36" version="1.1" xmlns="http://www.w3.org/2000/svg" xmlns:xlink="http://www.w3.org/1999/xlink">
    <title>Slice 1</title>
    <g id="Page-1" stroke="none" stroke-width="1" fill="none" fill-rule="evenodd">
        <circle id="Oval" fill="#000" cx="18" cy="18" r="18"></circle>
        <g id="Group" transform="translate(8.000000, 11.000000)" fill="#FFFFFF" fill-rule="nonzero">
            <path d="M2.25,0 C1.71106642,0 1.2199644,0.195451636 0.830566425,0.507102545 L9.8144535,9.23579564 C10.215474,9.55983927 10.784526,9.55983927 11.1855465,9.23579564 L20.1694335,0.507102545 C19.7800357,0.195451636 19.2889335,0 18.75,0 L2.25,0 Z M0.0395508,1.79687491 C0.01602765,1.922296 0,2.05027491 0,2.18181818 L0,13.8181818 C0,14.3041164 0.173649675,14.7505673 0.455566425,15.1150545 L6.6591795,8.22869309 L0.0395508,1.79687491 Z M20.9604495,1.79687491 L14.312988,8.25568145 L20.7875978,14.7230109 C20.9201985,14.4458836 21,14.1413164 21,13.8181818 L21,2.18181818 C21,2.05027491 20.9839725,1.922296 20.9604525,1.79687491 L20.9604495,1.79687491 Z M7.7211915,9.26136364 L1.71533205,15.9304 C1.88770312,15.9720364 2.06519715,16 2.25,16 L18.75,16 C19.106217,16 19.439472,15.9099345 19.740234,15.7642036 L13.2539062,9.28551127 C12.8931802,9.63716509 12.5200717,9.99771273 12.161133,10.3437498 C11.2061925,11.1272945 9.7938075,11.1272945 8.838867,10.3437498 C8.4671355,9.99037964 8.09226675,9.62168655 7.7211915,9.26136364 Z" id="Shape"></path>
        </g>
    </g>
</svg>