<?xml version="1.0" encoding="UTF-8"?>
<svg width="36px" height="36px" viewBox="0 0 36 36" version="1.1" xmlns="http://www.w3.org/2000/svg" xmlns:xlink="http://www.w3.org/1999/xlink">
    <title>Slice 1</title>
    <g id="Page-1" stroke="none" stroke-width="1" fill="none" fill-rule="evenodd">
        <circle id="Oval" fill="#000000" cx="18" cy="18" r="18"></circle>
        <path d="M23.4999514,11 C22.6716171,11 22,11.6716171 22,12.4999514 C22,13.3283829 22.6716171,14 23.4999514,14 C24.3283829,14 25,13.3283829 25,12.4999514 C25,11.6716171 24.3283829,11 23.4999514,11" id="Fill-13" fill="#FFFFFF"></path>
        <path d="M17.5000849,22.023135 C15.557385,22.023135 13.9769194,20.4427299 13.9769194,18.5 C13.9769194,16.5571852 15.557385,14.976865 17.5000849,14.976865 C19.4426999,14.976865 21.0229957,16.5571852 21.0229957,18.5 C21.0229957,20.4427299 19.4426999,22.023135 17.5000849,22.023135 Z M17.5000849,13 C14.4673707,13 12,15.4672389 12,18.5 C12,21.5325912 14.4673707,24 17.5000849,24 C20.5327142,24 23,21.5325912 23,18.5 C23,15.4672389 20.5327142,13 17.5000849,13 L17.5000849,13 Z" id="Fill-14" fill="#FFFFFF"></path>
        <path d="M13.6081303,9.06987381 C11.1054689,9.06987381 9.06963074,11.1055369 9.06963074,13.6081052 L9.06963074,22.3918948 C9.06963074,24.8945467 11.1054689,26.9303771 13.6081303,26.9303771 L22.3915351,26.9303771 C24.8941966,26.9303771 26.930202,24.8945467 26.930202,22.3918948 L26.930202,13.6081052 C26.930202,11.1055369 24.8941966,9.06987381 22.3915351,9.06987381 L13.6081303,9.06987381 Z M22.3915351,29 L13.6081303,29 C9.96438239,29 7,26.0356289 7,22.3918948 L7,13.6081052 C7,9.96428748 9.96438239,7 13.6081303,7 L22.3915351,7 C26.035283,7 29,9.96428748 29,13.6081052 L29,22.3918948 C29,26.0356289 26.035283,29 22.3915351,29 L22.3915351,29 Z" id="Fill-15" fill="#FFFFFF"></path>
    </g>
</svg>