<?xml version="1.0" encoding="UTF-8"?>
<svg width="36px" height="36px" viewBox="0 0 36 36" version="1.1" xmlns="http://www.w3.org/2000/svg" xmlns:xlink="http://www.w3.org/1999/xlink">
    <title>Slice 1</title>
    <g id="Page-1" stroke="none" stroke-width="1" fill="none" fill-rule="evenodd">
        <circle id="Oval" fill="#000000" cx="18" cy="18" r="18"></circle>
        <path d="M11.501639,8 C12.8817371,8 14,9.07910432 14,10.4062533 C14,11.7353169 12.8817371,12.815953 11.501639,12.815953 C10.1180642,12.815953 9,11.7353169 9,10.4062533 C9,9.07910432 10.1180642,8 11.501639,8 L11.501639,8 Z M9.34318692,28 L13.6587997,28 L13.6587997,14.6393827 L9.34318692,14.6393827 L9.34318692,28 Z" id="Fill-19" fill="#FFFFFF"></path>
        <path d="M16,14.3382139 L19.9984624,14.3382139 L19.9984624,16.2069559 L20.0532385,16.2069559 C20.6115702,15.1318174 21.9713627,14 24.000961,14 C28.2216029,14 29,16.8276836 29,20.5074118 L29,28 L24.8341342,28 L24.8341342,21.3580858 C24.8341342,19.7722493 24.8043436,17.7351345 22.6680761,17.7351345 C20.4972131,17.7351345 20.1666346,19.4609554 20.1666346,21.2425743 L20.1666346,28 L16,28 L16,14.3382139" id="Fill-20" fill="#FFFFFF"></path>
    </g>
</svg>