<?xml version="1.0" standalone="no"?>
<!DOCTYPE svg PUBLIC "-//W3C//DTD SVG 20010904//EN"
 "http://www.w3.org/TR/2001/REC-SVG-20010904/DTD/svg10.dtd">
<svg version="1.0" xmlns="http://www.w3.org/2000/svg"
 width="700.000000pt" height="700.000000pt" viewBox="0 0 700.000000 700.000000"
 preserveAspectRatio="xMidYMid meet">
<metadata>
Created by potrace 1.14, written by Peter Selinger 2001-2017
</metadata>
<g transform="translate(0.000000,700.000000) scale(0.100000,-0.100000)"
fill="#000000" stroke="none">
<path d="M3437 6904 c-1 -1 -56 -5 -122 -8 -66 -4 -133 -9 -150 -10 -84 -9
-155 -18 -200 -27 -27 -5 -66 -12 -85 -15 -19 -3 -75 -14 -125 -26 -1006 -228
-1862 -909 -2315 -1843 -100 -205 -205 -496 -235 -645 -2 -8 -8 -33 -14 -55
-6 -22 -17 -76 -26 -120 -8 -44 -17 -91 -20 -105 -3 -14 -8 -52 -11 -85 -4
-33 -8 -63 -10 -67 -25 -42 -25 -693 0 -813 3 -19 7 -45 22 -165 4 -25 8 -48
10 -51 2 -4 6 -24 10 -45 3 -22 17 -84 31 -139 14 -55 26 -107 28 -115 10 -52
96 -295 143 -405 231 -542 584 -1002 1045 -1362 318 -249 668 -436 1046 -557
207 -67 438 -119 631 -141 30 -4 69 -9 85 -11 71 -12 566 -10 675 1 136 15
209 25 230 30 8 2 31 7 50 10 454 77 946 284 1350 569 204 145 485 401 635
580 528 628 811 1409 808 2226 0 152 -18 386 -37 495 -5 28 -15 85 -20 115 -2
14 -9 45 -15 70 -5 25 -12 59 -15 75 -3 17 -13 55 -21 85 -9 30 -18 63 -20 73
-2 11 -18 62 -36 115 -212 654 -613 1226 -1158 1650 -112 87 -132 102 -250
177 -365 234 -816 413 -1211 480 -19 3 -42 8 -50 10 -8 2 -36 7 -62 10 -26 3
-79 9 -118 15 -86 12 -464 31 -473 24z m323 -928 c19 -3 57 -8 84 -11 179 -22
465 -97 616 -162 219 -95 460 -239 629 -376 162 -131 350 -335 473 -512 136
-196 269 -463 328 -661 47 -159 67 -243 95 -411 20 -122 26 -434 12 -597 -5
-49 -10 -92 -12 -95 -2 -3 -6 -31 -9 -61 -17 -147 -100 -425 -184 -616 -80
-182 -248 -456 -337 -550 -11 -12 -31 -37 -45 -54 -28 -37 -185 -197 -245
-250 -171 -150 -341 -264 -546 -366 -129 -64 -308 -137 -370 -149 -9 -2 -47
-12 -85 -24 -38 -11 -89 -25 -114 -30 -44 -10 -57 -12 -150 -26 -25 -4 -52 -9
-60 -10 -96 -18 -394 -24 -540 -12 -471 41 -910 210 -1295 499 -185 138 -357
314 -523 533 -113 149 -270 454 -332 645 -11 36 -27 85 -35 110 -16 48 -50
193 -59 250 -3 19 -10 62 -16 95 -13 76 -24 242 -24 365 0 96 12 299 19 309 2
4 6 29 9 56 3 28 8 61 11 75 3 14 7 34 9 45 13 66 49 201 71 270 15 44 28 85
29 90 3 11 9 24 51 125 39 92 112 236 151 298 19 29 34 56 34 61 0 5 3 11 8
13 4 2 23 28 43 59 156 237 436 509 706 686 334 218 750 361 1128 389 50 4 91
8 93 9 6 5 345 -3 382 -9z"/>
</g>
</svg>
